<?xml version="1.0" encoding="UTF-8" standalone="no"?>
<!-- Created with Inkscape (http://www.inkscape.org/) -->

<svg
   xmlns:dc="http://purl.org/dc/elements/1.1/"
   xmlns:cc="http://creativecommons.org/ns#"
   xmlns:rdf="http://www.w3.org/1999/02/22-rdf-syntax-ns#"
   xmlns:svg="http://www.w3.org/2000/svg"
   xmlns="http://www.w3.org/2000/svg"
   xmlns:sodipodi="http://sodipodi.sourceforge.net/DTD/sodipodi-0.dtd"
   xmlns:inkscape="http://www.inkscape.org/namespaces/inkscape"
   id="svg11531"
   version="1.1"
   inkscape:version="0.91 r"
   width="47.8125"
   height="82.5"
   viewBox="0 0 47.8125 82.5"
   sodipodi:docname="medical_inkscape.svg">
  <metadata
     id="metadata11537">
    <rdf:RDF>
      <cc:Work
         rdf:about="">
        <dc:format>image/svg+xml</dc:format>
        <dc:type
           rdf:resource="http://purl.org/dc/dcmitype/StillImage" />
        <dc:title></dc:title>
      </cc:Work>
    </rdf:RDF>
  </metadata>
  <defs
     id="defs11535" />
  <sodipodi:namedview
     pagecolor="#ffffff"
     bordercolor="#666666"
     borderopacity="1"
     objecttolerance="10"
     gridtolerance="10"
     guidetolerance="10"
     inkscape:pageopacity="0"
     inkscape:pageshadow="2"
     inkscape:window-width="1280"
     inkscape:window-height="993"
     id="namedview11533"
     showgrid="false"
     inkscape:zoom="6.7967961"
     inkscape:cx="39.395951"
     inkscape:cy="35.225818"
     inkscape:window-x="1680"
     inkscape:window-y="26"
     inkscape:window-maximized="1"
     inkscape:current-layer="svg11531" />
  <g
     transform="matrix(0.95961188,0,0,0.96154605,-0.75952473,-0.42480333)"
     id="g11541">
    <path
       style="fill:#000000;fill-opacity:0"
       d="M 0,0.5 0,0 0.5,0 1,0 1.5,0 2,0 2.5,0 3,0 3.5,0 4,0 4.5,0 5,0 5.5,0 6,0 6.5,0 7,0 7.5,0 8,0 8.5,0 9,0 9.5,0 10,0 l 0.5,0 0.5,0 0.5,0 0.5,0 0.5,0 0.5,0 0.5,0 0.5,0 0.5,0 0.5,0 0.5,0 0.5,0 0.5,0 0.5,0 0.5,0 0.5,0 0.5,0 0.5,0 0.5,0 0.5,0 0.5,0 0.5,0 0.5,0 0.5,0 0.5,0 0.5,0 0.5,0 0.5,0 0.5,0 0.5,0 0.5,0 0.5,0 0.5,0 0.5,0 0.5,0 0.5,0 0.5,0 0.5,0 0.5,0 0.5,0 0.5,0 0.5,0 0.5,0 0.5,0 0.5,0 0.5,0 0.5,0 0.5,0 0.5,0 0.5,0 0.5,0 0.5,0 0.5,0 0.5,0 0.5,0 0.5,0 0.5,0 0.5,0 0.5,0 0.5,0 0.5,0 0.5,0 0.5,0 0.5,0 0.5,0 0.5,0 0.5,0 0.5,0 0.5,0 0.5,0 0.5,0 0.5,0 0.5,0 0.5,0 0.5,0 0.5,0 0.5,0 0.5,0 0.5,0 0.5,0 0.5,0 0.5,0 0,0.5 0,0.5 0,0.5 0,0.5 0,0.5 0,0.5 0,0.5 0,0.5 0,0.5 0,0.5 0,0.5 0,0.5 0,0.5 0,0.5 0,0.5 0,0.5 0,0.5 0,0.5 0,0.5 0,0.5 0,0.5 0,0.5 0,0.5 0,0.5 0,0.5 0,0.5 0,0.5 0,0.5 0,0.5 0,0.5 0,0.5 0,0.5 0,0.5 0,0.5 0,0.5 0,0.5 0,0.5 0,0.5 0,0.5 0,0.5 0,0.5 0,0.5 0,0.5 0,0.5 0,0.5 0,0.5 0,0.5 0,0.5 0,0.5 0,0.5 0,0.5 0,0.5 0,0.5 0,0.5 0,0.5 0,0.5 0,0.5 0,0.5 0,0.5 0,0.5 0,0.5 0,0.5 0,0.5 0,0.5 0,0.5 0,0.5 0,0.5 0,0.5 0,0.5 0,0.5 0,0.5 0,0.5 0,0.5 0,0.5 0,0.5 0,0.5 0,0.5 0,0.5 0,0.5 0,0.5 0,0.5 0,0.5 0,0.5 0,0.5 0,0.5 0,0.5 0,0.5 0,0.5 0,0.5 0,0.5 0,0.5 0,0.5 0,0.5 0,0.5 0,0.5 0,0.5 0,0.5 0,0.5 0,0.5 0,0.5 0,0.5 0,0.5 0,0.5 0,0.5 0,0.5 0,0.5 0,0.5 0,0.5 0,0.5 0,0.5 0,0.5 0,0.5 0,0.5 0,0.5 0,0.5 0,0.5 0,0.5 0,0.5 0,0.5 0,0.5 0,0.5 0,0.5 0,0.5 0,0.5 0,0.5 0,0.5 0,0.5 0,0.5 0,0.5 0,0.5 0,0.5 0,0.5 0,0.5 0,0.5 0,0.5 0,0.5 0,0.5 0,0.5 0,0.5 0,0.5 0,0.5 0,0.5 0,0.5 0,0.5 0,0.5 0,0.5 0,0.5 0,0.5 0,0.5 0,0.5 0,0.5 0,0.5 0,0.5 0,0.5 0,0.5 0,0.5 0,0.5 0,0.5 0,0.5 0,0.5 0,0.5 0,0.5 0,0.5 0,0.5 0,0.5 0,0.5 0,0.5 0,0.5 0,0.5 0,0.5 0,0.5 0,0.5 0,0.5 0,0.5 0,0.5 0,0.5 -0.5,0 L 50,88 49.5,88 49,88 48.5,88 48,88 47.5,88 47,88 46.5,88 46,88 45.5,88 45,88 44.5,88 44,88 43.5,88 43,88 42.5,88 42,88 41.5,88 41,88 40.5,88 40,88 39.5,88 39,88 38.5,88 38,88 37.5,88 37,88 36.5,88 36,88 35.5,88 35,88 34.5,88 34,88 33.5,88 33,88 32.5,88 32,88 31.5,88 31,88 30.5,88 30,88 29.5,88 29,88 28.5,88 28,88 27.5,88 27,88 26.5,88 26,88 25.5,88 25,88 24.5,88 24,88 23.5,88 23,88 22.5,88 22,88 21.5,88 21,88 20.5,88 20,88 19.5,88 19,88 18.5,88 18,88 17.5,88 17,88 16.5,88 16,88 15.5,88 15,88 14.5,88 14,88 13.5,88 13,88 12.5,88 12,88 11.5,88 11,88 10.5,88 10,88 9.5,88 9,88 8.5,88 8,88 7.5,88 7,88 6.5,88 6,88 5.5,88 5,88 4.5,88 4,88 3.5,88 3,88 2.5,88 2,88 1.5,88 1,88 0.5,88 0,88 0,87.5 0,87 0,86.5 0,86 0,85.5 0,85 0,84.5 0,84 0,83.5 0,83 0,82.5 0,82 0,81.5 0,81 0,80.5 0,80 0,79.5 0,79 0,78.5 0,78 0,77.5 0,77 0,76.5 0,76 0,75.5 0,75 0,74.5 0,74 0,73.5 0,73 0,72.5 0,72 0,71.5 0,71 0,70.5 0,70 0,69.5 0,69 0,68.5 0,68 0,67.5 0,67 0,66.5 0,66 0,65.5 0,65 0,64.5 0,64 0,63.5 0,63 0,62.5 0,62 0,61.5 0,61 0,60.5 0,60 0,59.5 0,59 0,58.5 0,58 0,57.5 0,57 0,56.5 0,56 0,55.5 0,55 0,54.5 0,54 0,53.5 0,53 0,52.5 0,52 0,51.5 0,51 0,50.5 0,50 0,49.5 0,49 0,48.5 0,48 0,47.5 0,47 0,46.5 0,46 0,45.5 0,45 0,44.5 0,44 0,43.5 0,43 0,42.5 0,42 0,41.5 0,41 0,40.5 0,40 0,39.5 0,39 0,38.5 0,38 0,37.5 0,37 0,36.5 0,36 0,35.5 0,35 0,34.5 0,34 0,33.5 0,33 0,32.5 0,32 0,31.5 0,31 0,30.5 0,30 0,29.5 0,29 0,28.5 0,28 0,27.5 0,27 0,26.5 0,26 0,25.5 0,25 0,24.5 0,24 0,23.5 0,23 0,22.5 0,22 0,21.5 0,21 0,20.5 0,20 0,19.5 0,19 0,18.5 0,18 0,17.5 0,17 0,16.5 0,16 0,15.5 0,15 0,14.5 0,14 0,13.5 0,13 0,12.5 0,12 0,11.5 0,11 0,10.5 0,10 0,9.5 0,9 0,8.5 0,8 0,7.5 0,7 0,6.5 0,6 0,5.5 0,5 0,4.5 0,4 0,3.5 0,3 0,2.5 0,2 0,1.5 0,1 0,0.5 M 36.5,85 Q 37,85 37.375,84.875 37.75,84.75 38,84.5 38.25,84.25 38.625,84.125 39,84 39.375,83.875 39.75,83.75 39.875,83.375 40,83 40,82.5 40,82 40,81.5 40,81 40,80.5 40,80 39.875,79.625 39.75,79.25 39.5,79 39.25,78.75 39.125,78.375 39,78 39,77.5 39,77 38.875,76.625 38.75,76.25 38.5,76 38.25,75.75 38.125,75.375 38,75 38,74.5 q 0,-0.5 0,-1 0,-0.5 0,-1 0,-0.5 0,-1 0,-0.5 0,-1 0,-0.5 0,-1 0,-0.5 0,-1 Q 38,68 37.875,67.625 37.75,67.25 37.5,67 37.25,66.75 37.125,66.375 37,66 37,65.5 37,65 37,64.5 37,64 37,63.5 37,63 36.875,62.625 36.75,62.25 36.5,62 36.25,61.75 36.125,61.375 36,61 36,60.5 q 0,-0.5 0,-1 0,-0.5 0,-1 0,-0.5 0,-1 0,-0.5 0,-1 0,-0.5 0,-1 0,-0.5 0,-1 Q 36,54 36.125,53.625 36.25,53.25 36.5,53 36.75,52.75 36.875,52.375 37,52 36.875,51.625 36.75,51.25 36.5,51 36.25,50.75 36.125,50.375 36,50 36,49.5 q 0,-0.5 0,-1 0,-0.5 0,-1 0,-0.5 0,-1 0,-0.5 0,-1 Q 36,45 35.875,44.625 35.75,44.25 35.5,44 35.25,43.75 35.125,43.375 35,43 35,42.5 35,42 34.875,41.625 34.75,41.25 34.5,41 34.25,40.75 34.125,40.375 34,40 34,39.5 34,39 34,38.5 34,38 33.875,37.625 33.75,37.25 33.5,37 33.25,36.75 33.125,36.375 33,36 33.125,35.625 33.25,35.25 33.5,35 33.75,34.75 33.875,34.375 34,34 34,33.5 q 0,-0.5 0,-1 0,-0.5 0,-1 0,-0.5 0.125,-0.875 0.125,-0.375 0.375,-0.375 0.25,0 0.5,0.25 0.25,0.25 0.5,0.5 0.25,0.25 0.375,0.625 Q 36,32 36.125,32.375 36.25,32.75 36.5,33 36.75,33.25 36.875,33.625 37,34 37.125,34.375 37.25,34.75 37.5,35 q 0.25,0.25 0.5,0.5 0.25,0.25 0.5,0.5 0.25,0.25 0.5,0.5 0.25,0.25 0.5,0.5 0.25,0.25 0.5,0.5 0.25,0.25 0.5,0.5 0.25,0.25 0.375,0.625 Q 41,39 41.125,39.375 41.25,39.75 41.5,40 41.75,40.25 41.875,40.625 42,41 42,41.5 q 0,0.5 0,1 0,0.5 0.125,0.875 Q 42.25,43.75 42.5,44 42.75,44.25 42.875,44.625 43,45 43.125,45.375 43.25,45.75 43.5,46 q 0.25,0.25 0.5,0.5 0.25,0.25 0.625,0.375 Q 45,47 45.5,47 46,47 46.375,47.125 46.75,47.25 47,47.5 q 0.25,0.25 0.5,0.25 0.25,0 0.375,-0.375 Q 48,47 48,46.5 48,46 48.125,45.625 48.25,45.25 48.5,45 48.75,44.75 48.75,44.5 48.75,44.25 48.5,44 48.25,43.75 48.125,43.375 48,43 48,42.5 48,42 47.875,41.625 47.75,41.25 47.5,41 47.25,40.75 47.125,40.375 47,40 47,39.5 47,39 47,38.5 47,38 46.875,37.625 46.75,37.25 46.5,37 46.25,36.75 46.125,36.375 46,36 45.875,35.625 45.75,35.25 45.5,35 45.25,34.75 45,34.5 44.75,34.25 44.5,34 44.25,33.75 44.125,33.375 44,33 43.875,32.625 43.75,32.25 43.5,32 43.25,31.75 43,31.5 42.75,31.25 42.5,31 42.25,30.75 42.125,30.375 42,30 41.875,29.625 41.75,29.25 41.5,29 41.25,28.75 41.125,28.375 41,28 40.875,27.625 40.75,27.25 40.5,27 40.25,26.75 40.125,26.375 40,26 40,25.5 40,25 39.875,24.625 39.75,24.25 39.5,24 39.25,23.75 39.125,23.375 39,23 39,22.5 39,22 39,21.5 39,21 38.875,20.625 38.75,20.25 38.5,20 38.25,19.75 38.125,19.375 38,19 37.875,18.625 37.75,18.25 37.5,18 37.25,17.75 37,17.5 36.75,17.25 36.5,17 36.25,16.75 36,16.5 35.75,16.25 35.375,16.125 35,16 34.625,15.875 34.25,15.75 34,15.5 33.75,15.25 33.375,15.125 33,15 32.5,15 32,15 31.625,14.875 31.25,14.75 31,14.5 30.75,14.25 30.5,14 30.25,13.75 30,13.5 29.75,13.25 29.5,13 29.25,12.75 29.25,12.5 29.25,12.25 29.5,12 29.75,11.75 29.875,11.375 30,11 30.125,10.625 30.25,10.25 30.5,10 30.75,9.75 30.875,9.375 31,9 31,8.5 31,8 31,7.5 31,7 30.875,6.625 30.75,6.25 30.5,6 30.25,5.75 30.125,5.375 30,5 30,4.5 30,4 29.875,3.625 29.75,3.25 29.5,3 29.25,2.75 29,2.5 28.75,2.25 28.375,2.125 28,2 27.625,1.875 27.25,1.75 27,1.5 26.75,1.25 26.375,1.125 26,1 25.5,1 25,1 24.625,1.125 24.25,1.25 24,1.5 23.75,1.75 23.375,1.875 23,2 22.625,2.125 22.25,2.25 22,2.5 21.75,2.75 21.5,3 21.25,3.25 21.125,3.625 21,4 21,4.5 21,5 20.875,5.375 20.75,5.75 20.5,6 20.25,6.25 20.125,6.625 20,7 20,7.5 20,8 20,8.5 20,9 20.125,9.375 20.25,9.75 20.5,10 20.75,10.25 20.875,10.625 21,11 21.125,11.375 21.25,11.75 21.5,12 q 0.25,0.25 0.25,0.5 0,0.25 -0.25,0.5 -0.25,0.25 -0.5,0.5 -0.25,0.25 -0.5,0.5 -0.25,0.25 -0.5,0.5 -0.25,0.25 -0.625,0.375 Q 19,15 18.5,15 18,15 17.625,15.125 17.25,15.25 17,15.5 16.75,15.75 16.375,15.875 16,16 15.625,16.125 15.25,16.25 15,16.5 14.75,16.75 14.5,17 14.25,17.25 14,17.5 13.75,17.75 13.5,18 13.25,18.25 13.125,18.625 13,19 12.875,19.375 12.75,19.75 12.5,20 12.25,20.25 12.125,20.625 12,21 12,21.5 q 0,0.5 0,1 0,0.5 -0.125,0.875 Q 11.75,23.75 11.5,24 11.25,24.25 11.125,24.625 11,25 11,25.5 11,26 10.875,26.375 10.75,26.75 10.5,27 10.25,27.25 10.125,27.625 10,28 9.875,28.375 9.75,28.75 9.5,29 9.25,29.25 9.125,29.625 9,30 8.875,30.375 8.75,30.75 8.5,31 8.25,31.25 8,31.5 7.75,31.75 7.5,32 7.25,32.25 7.125,32.625 7,33 6.875,33.375 6.75,33.75 6.5,34 6.25,34.25 6,34.5 5.75,34.75 5.5,35 5.25,35.25 5.125,35.625 5,36 4.875,36.375 4.75,36.75 4.5,37 4.25,37.25 4.125,37.625 4,38 4,38.5 4,39 4,39.5 4,40 3.875,40.375 3.75,40.75 3.5,41 3.25,41.25 3.125,41.625 3,42 3,42.5 3,43 2.875,43.375 2.75,43.75 2.5,44 2.25,44.25 2.25,44.5 2.25,44.75 2.5,45 2.75,45.25 2.875,45.625 3,46 3,46.5 3,47 3.125,47.375 3.25,47.75 3.5,47.75 3.75,47.75 4,47.5 4.25,47.25 4.625,47.125 5,47 5.5,47 6,47 6.375,46.875 6.75,46.75 7,46.5 7.25,46.25 7.5,46 7.75,45.75 7.875,45.375 8,45 8.125,44.625 8.25,44.25 8.5,44 8.75,43.75 8.875,43.375 9,43 9,42.5 9,42 9,41.5 9,41 9.125,40.625 9.25,40.25 9.5,40 9.75,39.75 9.875,39.375 10,39 10.125,38.625 10.25,38.25 10.5,38 10.75,37.75 11,37.5 11.25,37.25 11.5,37 11.75,36.75 12,36.5 12.25,36.25 12.5,36 12.75,35.75 13,35.5 13.25,35.25 13.5,35 13.75,34.75 13.875,34.375 14,34 14.125,33.625 14.25,33.25 14.5,33 14.75,32.75 14.875,32.375 15,32 15.125,31.625 15.25,31.25 15.5,31 q 0.25,-0.25 0.5,-0.5 0.25,-0.25 0.5,-0.25 0.25,0 0.375,0.375 Q 17,31 17,31.5 q 0,0.5 0,1 0,0.5 0,1 0,0.5 0.125,0.875 0.125,0.375 0.375,0.625 0.25,0.25 0.375,0.625 0.125,0.375 0,0.75 Q 17.75,36.75 17.5,37 17.25,37.25 17.125,37.625 17,38 17,38.5 q 0,0.5 0,1 0,0.5 -0.125,0.875 Q 16.75,40.75 16.5,41 16.25,41.25 16.125,41.625 16,42 16,42.5 16,43 15.875,43.375 15.75,43.75 15.5,44 15.25,44.25 15.125,44.625 15,45 15,45.5 q 0,0.5 0,1 0,0.5 0,1 0,0.5 0,1 0,0.5 0,1 0,0.5 -0.125,0.875 Q 14.75,50.75 14.5,51 14.25,51.25 14.125,51.625 14,52 14.125,52.375 14.25,52.75 14.5,53 14.75,53.25 14.875,53.625 15,54 15,54.5 q 0,0.5 0,1 0,0.5 0,1 0,0.5 0,1 0,0.5 0,1 0,0.5 0,1 0,0.5 0,1 0,0.5 -0.125,0.875 Q 14.75,61.75 14.5,62 14.25,62.25 14.125,62.625 14,63 14,63.5 q 0,0.5 0,1 0,0.5 0,1 0,0.5 -0.125,0.875 Q 13.75,66.75 13.5,67 13.25,67.25 13.125,67.625 13,68 13,68.5 q 0,0.5 0,1 0,0.5 0,1 0,0.5 0,1 0,0.5 0,1 0,0.5 0,1 0,0.5 0,1 0,0.5 -0.125,0.875 Q 12.75,75.75 12.5,76 12.25,76.25 12.125,76.625 12,77 12,77.5 12,78 11.875,78.375 11.75,78.75 11.5,79 11.25,79.25 11.125,79.625 11,80 11,80.5 q 0,0.5 0,1 0,0.5 0,1 0,0.5 0.125,0.875 0.125,0.375 0.5,0.5 Q 12,84 12.375,84.125 12.75,84.25 13,84.5 13.25,84.75 13.625,84.875 14,85 14.5,85 q 0.5,0 0.875,-0.125 0.375,-0.125 0.5,-0.5 Q 16,84 16.125,83.625 16.25,83.25 16.5,83 16.75,82.75 17,82.5 17.25,82.25 17.5,82 17.75,81.75 17.875,81.375 18,81 18.125,80.625 18.25,80.25 18.5,80 18.75,79.75 18.875,79.375 19,79 19,78.5 19,78 19.125,77.625 19.25,77.25 19.5,77 19.75,76.75 19.75,76.5 19.75,76.25 19.5,76 19.25,75.75 19.125,75.375 19,75 19,74.5 19,74 19.125,73.625 19.25,73.25 19.5,73 19.75,72.75 19.875,72.375 20,72 20,71.5 20,71 20.125,70.625 20.25,70.25 20.5,70 20.75,69.75 20.875,69.375 21,69 21,68.5 21,68 21,67.5 21,67 21.125,66.625 21.25,66.25 21.5,66 21.75,65.75 21.75,65.5 21.75,65.25 21.5,65 21.25,64.75 21.125,64.375 21,64 21.125,63.625 21.25,63.25 21.5,63 21.75,62.75 21.875,62.375 22,62 22.125,61.625 22.25,61.25 22.5,61 22.75,60.75 22.875,60.375 23,60 23,59.5 23,59 23,58.5 23,58 23.125,57.625 23.25,57.25 23.5,57 23.75,56.75 23.875,56.375 24,56 24,55.5 24,55 24.125,54.625 24.25,54.25 24.5,54 24.75,53.75 24.875,53.375 25,53 25,52.5 q 0,-0.5 0,-1 0,-0.5 0,-1 0,-0.5 0.125,-0.875 0.125,-0.375 0.375,-0.375 0.25,0 0.375,0.375 Q 26,50 26,50.5 q 0,0.5 0,1 0,0.5 0,1 0,0.5 0.125,0.875 Q 26.25,53.75 26.5,54 26.75,54.25 26.875,54.625 27,55 27,55.5 27,56 27.125,56.375 27.25,56.75 27.5,57 27.75,57.25 27.875,57.625 28,58 28,58.5 q 0,0.5 0,1 0,0.5 0.125,0.875 Q 28.25,60.75 28.5,61 28.75,61.25 28.875,61.625 29,62 29.125,62.375 29.25,62.75 29.5,63 q 0.25,0.25 0.375,0.625 0.125,0.375 0,0.75 Q 29.75,64.75 29.5,65 q -0.25,0.25 -0.25,0.5 0,0.25 0.25,0.5 0.25,0.25 0.375,0.625 Q 30,67 30,67.5 q 0,0.5 0,1 0,0.5 0.125,0.875 Q 30.25,69.75 30.5,70 30.75,70.25 30.875,70.625 31,71 31,71.5 31,72 31.125,72.375 31.25,72.75 31.5,73 31.75,73.25 31.875,73.625 32,74 32,74.5 32,75 31.875,75.375 31.75,75.75 31.5,76 q -0.25,0.25 -0.25,0.5 0,0.25 0.25,0.5 0.25,0.25 0.375,0.625 Q 32,78 32,78.5 32,79 32.125,79.375 32.25,79.75 32.5,80 32.75,80.25 32.875,80.625 33,81 33.125,81.375 33.25,81.75 33.5,82 q 0.25,0.25 0.5,0.5 0.25,0.25 0.5,0.5 0.25,0.25 0.375,0.625 0.125,0.375 0.25,0.75 0.125,0.375 0.5,0.5 Q 36,85 36.5,85"
       id="path11543"
       inkscape:connector-curvature="0" />
    <path
       style="fill:#ffff00;fill-opacity:1"
       d="M 24,1.5 Q 24.25,1.25 24.625,1.125 25,1 25.5,1 26,1 26.375,1.125 26.75,1.25 27,1.5 27.25,1.75 27.625,1.875 28,2 28.375,2.125 28.75,2.25 29,2.5 29.25,2.75 29.5,3 29.75,3.25 29.875,3.625 30,4 30,4.5 30,5 30.125,5.375 30.25,5.75 30.5,6 30.75,6.25 30.875,6.625 31,7 31,7.5 31,8 31,8.5 31,9 30.875,9.375 30.75,9.75 30.5,10 30.25,10.25 30.125,10.625 30,11 29.875,11.375 29.75,11.75 29.5,12 q -0.25,0.25 -0.25,0.5 0,0.25 0.25,0.5 0.25,0.25 0.5,0.5 0.25,0.25 0.5,0.5 0.25,0.25 0.5,0.5 0.25,0.25 0.625,0.375 Q 32,15 32.5,15 33,15 33.375,15.125 33.75,15.25 34,15.5 34.25,15.75 34.625,15.875 35,16 35.375,16.125 35.75,16.25 36,16.5 q 0.25,0.25 0.5,0.5 0.25,0.25 0.5,0.5 0.25,0.25 0.5,0.5 0.25,0.25 0.375,0.625 Q 38,19 38.125,19.375 38.25,19.75 38.5,20 38.75,20.25 38.875,20.625 39,21 39,21.5 q 0,0.5 0,1 0,0.5 0.125,0.875 Q 39.25,23.75 39.5,24 39.75,24.25 39.875,24.625 40,25 40,25.5 40,26 40.125,26.375 40.25,26.75 40.5,27 40.75,27.25 40.875,27.625 41,28 41.125,28.375 41.25,28.75 41.5,29 41.75,29.25 41.875,29.625 42,30 42.125,30.375 42.25,30.75 42.5,31 q 0.25,0.25 0.5,0.5 0.25,0.25 0.5,0.5 0.25,0.25 0.375,0.625 Q 44,33 44.125,33.375 44.25,33.75 44.5,34 q 0.25,0.25 0.5,0.5 0.25,0.25 0.5,0.5 0.25,0.25 0.375,0.625 Q 46,36 46.125,36.375 46.25,36.75 46.5,37 46.75,37.25 46.875,37.625 47,38 47,38.5 q 0,0.5 0,1 0,0.5 0.125,0.875 Q 47.25,40.75 47.5,41 47.75,41.25 47.875,41.625 48,42 48,42.5 48,43 48.125,43.375 48.25,43.75 48.5,44 q 0.25,0.25 0.25,0.5 0,0.25 -0.25,0.5 -0.25,0.25 -0.375,0.625 Q 48,46 48,46.5 48,47 47.875,47.375 47.75,47.75 47.5,47.75 47.25,47.75 47,47.5 46.75,47.25 46.375,47.125 46,47 45.5,47 45,47 44.625,46.875 44.25,46.75 44,46.5 43.75,46.25 43.5,46 43.25,45.75 43.125,45.375 43,45 42.875,44.625 42.75,44.25 42.5,44 42.25,43.75 42.125,43.375 42,43 42,42.5 42,42 42,41.5 42,41 41.875,40.625 41.75,40.25 41.5,40 41.25,39.75 41.125,39.375 41,39 40.875,38.625 40.75,38.25 40.5,38 40.25,37.75 40,37.5 39.75,37.25 39.5,37 39.25,36.75 39,36.5 38.75,36.25 38.5,36 38.25,35.75 38,35.5 37.75,35.25 37.5,35 37.25,34.75 37.125,34.375 37,34 36.875,33.625 36.75,33.25 36.5,33 36.25,32.75 36.125,32.375 36,32 35.875,31.625 35.75,31.25 35.5,31 35.25,30.75 35,30.5 q -0.25,-0.25 -0.5,-0.25 -0.25,0 -0.375,0.375 Q 34,31 34,31.5 q 0,0.5 0,1 0,0.5 0,1 0,0.5 -0.125,0.875 Q 33.75,34.75 33.5,35 33.25,35.25 33.125,35.625 33,36 33.125,36.375 33.25,36.75 33.5,37 33.75,37.25 33.875,37.625 34,38 34,38.5 q 0,0.5 0,1 0,0.5 0.125,0.875 Q 34.25,40.75 34.5,41 34.75,41.25 34.875,41.625 35,42 35,42.5 35,43 35.125,43.375 35.25,43.75 35.5,44 35.75,44.25 35.875,44.625 36,45 36,45.5 q 0,0.5 0,1 0,0.5 0,1 0,0.5 0,1 0,0.5 0,1 0,0.5 0.125,0.875 0.125,0.375 0.375,0.625 0.25,0.25 0.375,0.625 0.125,0.375 0,0.75 Q 36.75,52.75 36.5,53 36.25,53.25 36.125,53.625 36,54 36,54.5 q 0,0.5 0,1 0,0.5 0,1 0,0.5 0,1 0,0.5 0,1 0,0.5 0,1 0,0.5 0,1 0,0.5 0.125,0.875 Q 36.25,61.75 36.5,62 36.75,62.25 36.875,62.625 37,63 37,63.5 q 0,0.5 0,1 0,0.5 0,1 0,0.5 0.125,0.875 Q 37.25,66.75 37.5,67 37.75,67.25 37.875,67.625 38,68 38,68.5 q 0,0.5 0,1 0,0.5 0,1 0,0.5 0,1 0,0.5 0,1 0,0.5 0,1 0,0.5 0,1 0,0.5 0.125,0.875 Q 38.25,75.75 38.5,76 38.75,76.25 38.875,76.625 39,77 39,77.5 39,78 39.125,78.375 39.25,78.75 39.5,79 39.75,79.25 39.875,79.625 40,80 40,80.5 q 0,0.5 0,1 0,0.5 0,1 0,0.5 -0.125,0.875 -0.125,0.375 -0.5,0.5 Q 39,84 38.625,84.125 38.25,84.25 38,84.5 37.75,84.75 37.375,84.875 37,85 36.5,85 36,85 35.625,84.875 35.25,84.75 35.125,84.375 35,84 34.875,83.625 34.75,83.25 34.5,83 34.25,82.75 34,82.5 33.75,82.25 33.5,82 33.25,81.75 33.125,81.375 33,81 32.875,80.625 32.75,80.25 32.5,80 32.25,79.75 32.125,79.375 32,79 32,78.5 32,78 31.875,77.625 31.75,77.25 31.5,77 31.25,76.75 31.25,76.5 31.25,76.25 31.5,76 31.75,75.75 31.875,75.375 32,75 32,74.5 32,74 31.875,73.625 31.75,73.25 31.5,73 31.25,72.75 31.125,72.375 31,72 31,71.5 31,71 30.875,70.625 30.75,70.25 30.5,70 30.25,69.75 30.125,69.375 30,69 30,68.5 30,68 30,67.5 30,67 29.875,66.625 29.75,66.25 29.5,66 29.25,65.75 29.25,65.5 29.25,65.25 29.5,65 29.75,64.75 29.875,64.375 30,64 29.875,63.625 29.75,63.25 29.5,63 29.25,62.75 29.125,62.375 29,62 28.875,61.625 28.75,61.25 28.5,61 28.25,60.75 28.125,60.375 28,60 28,59.5 28,59 28,58.5 28,58 27.875,57.625 27.75,57.25 27.5,57 27.25,56.75 27.125,56.375 27,56 27,55.5 27,55 26.875,54.625 26.75,54.25 26.5,54 26.25,53.75 26.125,53.375 26,53 26,52.5 26,52 26,51.5 26,51 26,50.5 26,50 25.875,49.625 25.75,49.25 25.5,49.25 q -0.25,0 -0.375,0.375 Q 25,50 25,50.5 q 0,0.5 0,1 0,0.5 0,1 0,0.5 -0.125,0.875 Q 24.75,53.75 24.5,54 24.25,54.25 24.125,54.625 24,55 24,55.5 24,56 23.875,56.375 23.75,56.75 23.5,57 23.25,57.25 23.125,57.625 23,58 23,58.5 q 0,0.5 0,1 0,0.5 -0.125,0.875 Q 22.75,60.75 22.5,61 22.25,61.25 22.125,61.625 22,62 21.875,62.375 21.75,62.75 21.5,63 21.25,63.25 21.125,63.625 21,64 21.125,64.375 21.25,64.75 21.5,65 q 0.25,0.25 0.25,0.5 0,0.25 -0.25,0.5 -0.25,0.25 -0.375,0.625 Q 21,67 21,67.5 q 0,0.5 0,1 0,0.5 -0.125,0.875 Q 20.75,69.75 20.5,70 20.25,70.25 20.125,70.625 20,71 20,71.5 20,72 19.875,72.375 19.75,72.75 19.5,73 19.25,73.25 19.125,73.625 19,74 19,74.5 19,75 19.125,75.375 19.25,75.75 19.5,76 q 0.25,0.25 0.25,0.5 0,0.25 -0.25,0.5 -0.25,0.25 -0.375,0.625 Q 19,78 19,78.5 19,79 18.875,79.375 18.75,79.75 18.5,80 18.25,80.25 18.125,80.625 18,81 17.875,81.375 17.75,81.75 17.5,82 17.25,82.25 17,82.5 16.75,82.75 16.5,83 16.25,83.25 16.125,83.625 16,84 15.875,84.375 15.75,84.75 15.375,84.875 15,85 14.5,85 14,85 13.625,84.875 13.25,84.75 13,84.5 12.75,84.25 12.375,84.125 12,84 11.625,83.875 11.25,83.75 11.125,83.375 11,83 11,82.5 11,82 11,81.5 11,81 11,80.5 11,80 11.125,79.625 11.25,79.25 11.5,79 11.75,78.75 11.875,78.375 12,78 12,77.5 12,77 12.125,76.625 12.25,76.25 12.5,76 12.75,75.75 12.875,75.375 13,75 13,74.5 q 0,-0.5 0,-1 0,-0.5 0,-1 0,-0.5 0,-1 0,-0.5 0,-1 0,-0.5 0,-1 0,-0.5 0,-1 Q 13,68 13.125,67.625 13.25,67.25 13.5,67 13.75,66.75 13.875,66.375 14,66 14,65.5 14,65 14,64.5 14,64 14,63.5 14,63 14.125,62.625 14.25,62.25 14.5,62 14.75,61.75 14.875,61.375 15,61 15,60.5 q 0,-0.5 0,-1 0,-0.5 0,-1 0,-0.5 0,-1 0,-0.5 0,-1 0,-0.5 0,-1 0,-0.5 0,-1 Q 15,54 14.875,53.625 14.75,53.25 14.5,53 14.25,52.75 14.125,52.375 14,52 14.125,51.625 14.25,51.25 14.5,51 14.75,50.75 14.875,50.375 15,50 15,49.5 q 0,-0.5 0,-1 0,-0.5 0,-1 0,-0.5 0,-1 0,-0.5 0,-1 Q 15,45 15.125,44.625 15.25,44.25 15.5,44 15.75,43.75 15.875,43.375 16,43 16,42.5 16,42 16.125,41.625 16.25,41.25 16.5,41 16.75,40.75 16.875,40.375 17,40 17,39.5 17,39 17,38.5 17,38 17.125,37.625 17.25,37.25 17.5,37 17.75,36.75 17.875,36.375 18,36 17.875,35.625 17.75,35.25 17.5,35 17.25,34.75 17.125,34.375 17,34 17,33.5 17,33 17,32.5 17,32 17,31.5 17,31 16.875,30.625 16.75,30.25 16.5,30.25 16.25,30.25 16,30.5 15.75,30.75 15.5,31 15.25,31.25 15.125,31.625 15,32 14.875,32.375 14.75,32.75 14.5,33 14.25,33.25 14.125,33.625 14,34 13.875,34.375 13.75,34.75 13.5,35 13.25,35.25 13,35.5 12.75,35.75 12.5,36 12.25,36.25 12,36.5 11.75,36.75 11.5,37 11.25,37.25 11,37.5 10.75,37.75 10.5,38 10.25,38.25 10.125,38.625 10,39 9.875,39.375 9.75,39.75 9.5,40 9.25,40.25 9.125,40.625 9,41 9,41.5 9,42 9,42.5 9,43 8.875,43.375 8.75,43.75 8.5,44 8.25,44.25 8.125,44.625 8,45 7.875,45.375 7.75,45.75 7.5,46 7.25,46.25 7,46.5 6.75,46.75 6.375,46.875 6,47 5.5,47 5,47 4.625,47.125 4.25,47.25 4,47.5 3.75,47.75 3.5,47.75 3.25,47.75 3.125,47.375 3,47 3,46.5 3,46 2.875,45.625 2.75,45.25 2.5,45 2.25,44.75 2.25,44.5 2.25,44.25 2.5,44 2.75,43.75 2.875,43.375 3,43 3,42.5 3,42 3.125,41.625 3.25,41.25 3.5,41 3.75,40.75 3.875,40.375 4,40 4,39.5 4,39 4,38.5 4,38 4.125,37.625 4.25,37.25 4.5,37 4.75,36.75 4.875,36.375 5,36 5.125,35.625 5.25,35.25 5.5,35 5.75,34.75 6,34.5 6.25,34.25 6.5,34 6.75,33.75 6.875,33.375 7,33 7.125,32.625 7.25,32.25 7.5,32 7.75,31.75 8,31.5 8.25,31.25 8.5,31 8.75,30.75 8.875,30.375 9,30 9.125,29.625 9.25,29.25 9.5,29 9.75,28.75 9.875,28.375 10,28 10.125,27.625 10.25,27.25 10.5,27 10.75,26.75 10.875,26.375 11,26 11,25.5 11,25 11.125,24.625 11.25,24.25 11.5,24 11.75,23.75 11.875,23.375 12,23 12,22.5 12,22 12,21.5 12,21 12.125,20.625 12.25,20.25 12.5,20 12.75,19.75 12.875,19.375 13,19 13.125,18.625 13.25,18.25 13.5,18 13.75,17.75 14,17.5 14.25,17.25 14.5,17 14.75,16.75 15,16.5 15.25,16.25 15.625,16.125 16,16 16.375,15.875 16.75,15.75 17,15.5 17.25,15.25 17.625,15.125 18,15 18.5,15 19,15 19.375,14.875 19.75,14.75 20,14.5 20.25,14.25 20.5,14 20.75,13.75 21,13.5 21.25,13.25 21.5,13 21.75,12.75 21.75,12.5 21.75,12.25 21.5,12 21.25,11.75 21.125,11.375 21,11 20.875,10.625 20.75,10.25 20.5,10 20.25,9.75 20.125,9.375 20,9 20,8.5 20,8 20,7.5 20,7 20.125,6.625 20.25,6.25 20.5,6 20.75,5.75 20.875,5.375 21,5 21,4.5 21,4 21.125,3.625 21.25,3.25 21.5,3 21.75,2.75 22,2.5 22.25,2.25 22.625,2.125 23,2 23.375,1.875 23.75,1.75 24,1.5"
       id="path11545"
       inkscape:connector-curvature="0" />
  </g>
</svg>
