<?xml version="1.0" encoding="UTF-8" standalone="no"?>
<svg viewBox="0 0 1280 720"
xmlns="http://www.w3.org/2000/svg">
<metadata>
<rdf:RDF xmlns:rdf="http://www.w3.org/1999/02/22-rdf-syntax-ns#" xmlns:schema="http://schema.org/">
	<schema:license rdf:resource="https://www.gnu.org/licenses/agpl-3.0.html"/>
</rdf:RDF>
</metadata>
<defs>
	<filter id="project-glow" x="-20%" y="-20%" width="140%" height="140%">
		<feGaussianBlur in="SourceGraphic" stdDeviation="1" result="blurred"/>
	
		<feGaussianBlur in="SourceGraphic" stdDeviation="3" result="blurred1"/>
		<feOffset in="blurred1" dx="0" dy="4" result="offsetblur1"/>
		<feColorMatrix in="offsetblur1" type="matrix" result="dropshadow1"
		values="0.6 0 0 0 0 0 0.6 0 0 0 0 0 0.6 0 0 0 0 0 1 0" />
	
		<feGaussianBlur in="SourceGraphic" stdDeviation="8" result="blurred2"/>
		<feOffset in="blurred2" dx="0" dy="4" result="offsetblur2"/>
		<feColorMatrix in="offsetblur2" type="matrix" result="dropshadow2"
		values="0.6 0 0 0 0 0 0.6 0 0 0 0 0 0.6 0 0 0 0 0 1 0" />
	
		<feGaussianBlur in="SourceGraphic" stdDeviation="12" result="blurred3"/>
		<feOffset in="blurred3" dx="0" dy="6" result="offsetblur3"/>
		<feColorMatrix in="offsetblur3" type="matrix" result="dropshadow3"
		values="1.0 0 0 0 0 0 1.0 0 0 0 0 0 1.0 0 0 0 0 0 1 0" />
	
		<feMerge>
			<feMergeNode in="dropshadow3"/>
			<feMergeNode in="dropshadow2"/>
			<feMergeNode in="dropshadow1"/>
			<feMergeNode in="blurred"/>
		</feMerge>
	</filter>

	<filter id="f-dropshadow2">
		<feGaussianBlur in="SourceGraphic" stdDeviation="1" result="blurred"/>
	
		<feGaussianBlur in="SourceGraphic" stdDeviation="8" result="blurred1"/>
		<feOffset in="blurred1" dx="0" dy="10" result="offsetblur1"/>
		<feColorMatrix in="offsetblur1" type="matrix" result="dropshadow1"
		values="0.5 0 0 0 0 0 0.5 0 0 0 0 0 0.5 0 0 0 0 0 1 0" />
	
		<feMerge>
			<feMergeNode in="dropshadow1"/>
			<feMergeNode in="blurred"/>
		</feMerge>
	</filter>

	<filter id="f-dropshadow-up" x="-20%" y="-20%" width="140%" height="140%">
		<feGaussianBlur in="SourceGraphic" stdDeviation="6" result="blurred1"/>
		<feOffset in="blurred1" dx="0" dy="-3" result="offsetblur1"/>
		<feColorMatrix in="offsetblur1" type="matrix" result="dropshadow1"
		values="0.5 0 0 0 0 0 0.5 0 0 0 0 0 0.5 0 0 0 0 0 1 0" />
	</filter>

	<filter id="slight-blur">
		<feGaussianBlur in="SourceGraphic" stdDeviation="1" result="blurred"/>
	
		<feGaussianBlur in="SourceGraphic" stdDeviation="2" result="blurred1"/>
		<feOffset in="blurred1" dx="0" dy="2" result="offsetblur1"/>
		<feColorMatrix in="offsetblur1" type="matrix" result="dropshadow1"
		values="0.8 0 0 0 0 0 0.8 0 0 0 0 0 0.8 0 0 0 0 0 1 0" />
	
		<feMerge>
			<feMergeNode in="dropshadow1"/>
			<feMergeNode in="blurred"/>
		</feMerge>
	</filter>

	<filter id="f-dropshadow4">
		<feGaussianBlur in="SourceGraphic" stdDeviation="1" result="blurred1"/>
		<feOffset in="blurred1" dx="0" dy="0" result="offsetblur1"/>
		<feColorMatrix in="offsetblur1" type="matrix" result="dropshadow1"
		values="0.8 0 0 0 0 0 0.8 0 0 0 0 0 0.8 0 0 0 0 0 1 0" />
	
		<feMerge>
			<feMergeNode in="dropshadow1"/>
			<feMergeNode in="SourceGraphic"/>
		</feMerge>
	</filter>
	<style type="text/css"><![CDATA[
		.line {
			fill:none;
			stroke:rgba(255, 165, 11, 0.5);
		}
		#HUD-upper,
		#HUD-right,
		#HUD-lower,
		#HUD-left {
			display: none;
		}
		#HUD-upper:target,
		#HUD-right:target,
		#HUD-lower:target,
		#HUD-left:target {
			display: inline;
		}
		.line.project {
			stroke-width:3;
			filter: url("#project-glow");
		}
		.box {
			stroke:rgba(255, 165, 11, 0.5);
			fill: rgba(255, 165, 11, 0.5);
			stroke-width:3;
			filter: url("#slight-blur")
		}
		.line.reflect {
			z-index: 40;
			stroke-width:1;
			filter: url("#f-dropshadow2");
		}
		.line.reflect-top {
			z-index: 40;
			stroke-width:7;
			filter: url("#f-dropshadow-up");
		}
		.line.detail {
			stroke-width:3;
			filter: url("#slight-blur");
		}
		.line.bright-detail {
			stroke-width:4;
			filter: url("#f-dropshadow4");
		}
	]]></style>
</defs>
<svg id="HUD-upper">
	<path class="line project" id="upper-main"
	d="
		M249, 0
		L257,17
		Q259,19 262,21
		L388,39
		Q396,39 401,37
		L435,25
		Q440,24 454,26
		L610,42
		Q625,42 629,36
		Q633,33 645,33
		Q656,33 661,35
		Q666,41 680,41
		L862,29
		Q872,29 879,31
		L906,43
		Q910,44 914,44
		L944,41
		Q950,40 952,37
		Q960,27 969, 0
	"/>
	
	<path class="line reflect-top" id="upper-main-shadow"
	d="
		M258,17
		L402,37
		M900,41
		L952,37
	"/>
</svg>
<svg id="HUD-right">
	<path class="line project"
	d="
		M385,543
		L389.8,536.6
		Q395.0,527.0 402.0,527.2
		L455.0,527.8
		Q467.0,528.0 472.2,517.2
		L475,505
		
		M429,573
		L438.0,573.0
		Q451.0,572.0 442.5,582
		L435,593
	"/>
	<rect x="448" y="540" width="4" height="4" class="box"/>
	<rect x="454" y="540" width="4" height="4" class="box"/>
	<rect x="460" y="540" width="4" height="4" class="box"/>
	<rect x="448" y="546" width="4" height="4" class="box"/>
	<rect x="454" y="546" width="4" height="4" class="box"/>
	<rect x="460" y="546" width="4" height="4" class="box"/>
	<rect x="448" y="552" width="4" height="4" class="box"/>
	<rect x="454" y="552" width="4" height="4" class="box"/>
	<rect x="460" y="552" width="4" height="4" class="box"/>
	<rect x="448" y="558" width="4" height="4" class="box"/>
	<rect x="454" y="558" width="4" height="4" class="box"/>
	<rect x="460" y="558" width="4" height="4" class="box"/>
</svg>
<svg id="HUD-lower">
	<path class="line project" id="lower-main"
	d="
		M0,620
		L-2.0,620.0
		Q10.0,620.0 17.7,629.2
		L52.3,670.8
		Q60.0,680.0 71.7,682.5
		L213.3,712.5
		Q225.0,715.0 234.2,707.3
		L245.8,697.7
		Q255.0,690.0 266.8,692.2
		L348.2,707.8
		Q360.0,710.0 365,720
		
		M910,720
		L916.8,712.8
		Q925.0,704.0 936.9,702.1
		L1009.1,690.9
		Q1021.0,689.0 1031.2,695.4
		L1045.8,704.6
		Q1056.0,711.0 1067.7,708.2
		L1209.3,674.8
		Q1221.0,672.0 1228.6,662.7
		L1260.4,623.3
		Q1268.0,614.0 1280,614
	"/>
	<path class="line reflect" id="lower-main-shadow"
	d="
		M0,608
		L3.0,608.0
		Q15.0,608.0 22.8,617.1
		L58.2,658.9
		Q66.0,668.0 77.7,670.6
		L220.3,702.4
		Q232.0,705.0 242.0,698.3
		L258.0,687.7
		Q268.0,681.0 279.8,683.2
		L347.2,695.8
		Q359.0,698.0 364.2,708.8
		L370,721
		
		M902,720
		L912.6,706.5
		Q920.0,697.0 931.9,695.4
		L995.1,686.6
		Q1007.0,685.0 1018.1,689.5
		L1035.9,696.5
		Q1047.0,701.0 1058.7,698.4
		L1202.3,666.6
		Q1214.0,664.0 1221.4,654.6
		L1251.6,616.4
		Q1259.0,607.0 1271.0,607.0
		L1280,607
	"/>
</svg>
<svg id="HUD-left">
<path class="line detail" id="medical-outline"
	d="
		M 73,602
		L 66,643
		Q 66,647 67,649
		L 75,659
		Q 76,660 78,661
		L108,668
		Q115,668 118,661
		L127,611
		Q129,603 122,602
		L 87,596
		Q 75,594 73,602
	
		M145,612
		Q141,612 141,614
		L137,627
		Q137,632 140,632
		L155,635
		Q159,635 159,631
		L161,617
		Q161,616 159,615
		Z
	"/>
	
	<path class="line bright-detail" id="cross"
	d="
		M143,622
		L156,625
		M151,618
		L148,630
	"/>
	<g transform="matrix(0.65 0 0 0.65 85 600)">
	<path transform="rotate(12)"
       d="M 24,1.5 Q 24.25,1.25 24.625,1.125 25,1 25.5,1 26,1 26.375,1.125 26.75,1.25 27,1.5 27.25,1.75 27.625,1.875 28,2 28.375,2.125 28.75,2.25 29,2.5 29.25,2.75 29.5,3 29.75,3.25 29.875,3.625 30,4 30,4.5 30,5 30.125,5.375 30.25,5.75 30.5,6 30.75,6.25 30.875,6.625 31,7 31,7.5 31,8 31,8.5 31,9 30.875,9.375 30.75,9.75 30.5,10 30.25,10.25 30.125,10.625 30,11 29.875,11.375 29.75,11.75 29.5,12 q -0.25,0.25 -0.25,0.5 0,0.25 0.25,0.5 0.25,0.25 0.5,0.5 0.25,0.25 0.5,0.5 0.25,0.25 0.5,0.5 0.25,0.25 0.625,0.375 Q 32,15 32.5,15 33,15 33.375,15.125 33.75,15.25 34,15.5 34.25,15.75 34.625,15.875 35,16 35.375,16.125 35.75,16.25 36,16.5 q 0.25,0.25 0.5,0.5 0.25,0.25 0.5,0.5 0.25,0.25 0.5,0.5 0.25,0.25 0.375,0.625 Q 38,19 38.125,19.375 38.25,19.75 38.5,20 38.75,20.25 38.875,20.625 39,21 39,21.5 q 0,0.5 0,1 0,0.5 0.125,0.875 Q 39.25,23.75 39.5,24 39.75,24.25 39.875,24.625 40,25 40,25.5 40,26 40.125,26.375 40.25,26.75 40.5,27 40.75,27.25 40.875,27.625 41,28 41.125,28.375 41.25,28.75 41.5,29 41.75,29.25 41.875,29.625 42,30 42.125,30.375 42.25,30.75 42.5,31 q 0.25,0.25 0.5,0.5 0.25,0.25 0.5,0.5 0.25,0.25 0.375,0.625 Q 44,33 44.125,33.375 44.25,33.75 44.5,34 q 0.25,0.25 0.5,0.5 0.25,0.25 0.5,0.5 0.25,0.25 0.375,0.625 Q 46,36 46.125,36.375 46.25,36.75 46.5,37 46.75,37.25 46.875,37.625 47,38 47,38.5 q 0,0.5 0,1 0,0.5 0.125,0.875 Q 47.25,40.75 47.5,41 47.75,41.25 47.875,41.625 48,42 48,42.5 48,43 48.125,43.375 48.25,43.75 48.5,44 q 0.25,0.25 0.25,0.5 0,0.25 -0.25,0.5 -0.25,0.25 -0.375,0.625 Q 48,46 48,46.5 48,47 47.875,47.375 47.75,47.75 47.5,47.75 47.25,47.75 47,47.5 46.75,47.25 46.375,47.125 46,47 45.5,47 45,47 44.625,46.875 44.25,46.75 44,46.5 43.75,46.25 43.5,46 43.25,45.75 43.125,45.375 43,45 42.875,44.625 42.75,44.25 42.5,44 42.25,43.75 42.125,43.375 42,43 42,42.5 42,42 42,41.5 42,41 41.875,40.625 41.75,40.25 41.5,40 41.25,39.75 41.125,39.375 41,39 40.875,38.625 40.75,38.25 40.5,38 40.25,37.75 40,37.5 39.75,37.25 39.5,37 39.25,36.75 39,36.5 38.75,36.25 38.5,36 38.25,35.75 38,35.5 37.75,35.25 37.5,35 37.25,34.75 37.125,34.375 37,34 36.875,33.625 36.75,33.25 36.5,33 36.25,32.75 36.125,32.375 36,32 35.875,31.625 35.75,31.25 35.5,31 35.25,30.75 35,30.5 q -0.25,-0.25 -0.5,-0.25 -0.25,0 -0.375,0.375 Q 34,31 34,31.5 q 0,0.5 0,1 0,0.5 0,1 0,0.5 -0.125,0.875 Q 33.75,34.75 33.5,35 33.25,35.25 33.125,35.625 33,36 33.125,36.375 33.25,36.75 33.5,37 33.75,37.25 33.875,37.625 34,38 34,38.5 q 0,0.5 0,1 0,0.5 0.125,0.875 Q 34.25,40.75 34.5,41 34.75,41.25 34.875,41.625 35,42 35,42.5 35,43 35.125,43.375 35.25,43.75 35.5,44 35.75,44.25 35.875,44.625 36,45 36,45.5 q 0,0.5 0,1 0,0.5 0,1 0,0.5 0,1 0,0.5 0,1 0,0.5 0.125,0.875 0.125,0.375 0.375,0.625 0.25,0.25 0.375,0.625 0.125,0.375 0,0.75 Q 36.75,52.75 36.5,53 36.25,53.25 36.125,53.625 36,54 36,54.5 q 0,0.5 0,1 0,0.5 0,1 0,0.5 0,1 0,0.5 0,1 0,0.5 0,1 0,0.5 0,1 0,0.5 0.125,0.875 Q 36.25,61.75 36.5,62 36.75,62.25 36.875,62.625 37,63 37,63.5 q 0,0.5 0,1 0,0.5 0,1 0,0.5 0.125,0.875 Q 37.25,66.75 37.5,67 37.75,67.25 37.875,67.625 38,68 38,68.5 q 0,0.5 0,1 0,0.5 0,1 0,0.5 0,1 0,0.5 0,1 0,0.5 0,1 0,0.5 0,1 0,0.5 0.125,0.875 Q 38.25,75.75 38.5,76 38.75,76.25 38.875,76.625 39,77 39,77.5 39,78 39.125,78.375 39.25,78.75 39.5,79 39.75,79.25 39.875,79.625 40,80 40,80.5 q 0,0.5 0,1 0,0.5 0,1 0,0.5 -0.125,0.875 -0.125,0.375 -0.5,0.5 Q 39,84 38.625,84.125 38.25,84.25 38,84.5 37.75,84.75 37.375,84.875 37,85 36.5,85 36,85 35.625,84.875 35.25,84.75 35.125,84.375 35,84 34.875,83.625 34.75,83.25 34.5,83 34.25,82.75 34,82.5 33.75,82.25 33.5,82 33.25,81.75 33.125,81.375 33,81 32.875,80.625 32.75,80.25 32.5,80 32.25,79.75 32.125,79.375 32,79 32,78.5 32,78 31.875,77.625 31.75,77.25 31.5,77 31.25,76.75 31.25,76.5 31.25,76.25 31.5,76 31.75,75.75 31.875,75.375 32,75 32,74.5 32,74 31.875,73.625 31.75,73.25 31.5,73 31.25,72.75 31.125,72.375 31,72 31,71.5 31,71 30.875,70.625 30.75,70.25 30.5,70 30.25,69.75 30.125,69.375 30,69 30,68.5 30,68 30,67.5 30,67 29.875,66.625 29.75,66.25 29.5,66 29.25,65.75 29.25,65.5 29.25,65.25 29.5,65 29.75,64.75 29.875,64.375 30,64 29.875,63.625 29.75,63.25 29.5,63 29.25,62.75 29.125,62.375 29,62 28.875,61.625 28.75,61.25 28.5,61 28.25,60.75 28.125,60.375 28,60 28,59.5 28,59 28,58.5 28,58 27.875,57.625 27.75,57.25 27.5,57 27.25,56.75 27.125,56.375 27,56 27,55.5 27,55 26.875,54.625 26.75,54.25 26.5,54 26.25,53.75 26.125,53.375 26,53 26,52.5 26,52 26,51.5 26,51 26,50.5 26,50 25.875,49.625 25.75,49.25 25.5,49.25 q -0.25,0 -0.375,0.375 Q 25,50 25,50.5 q 0,0.5 0,1 0,0.5 0,1 0,0.5 -0.125,0.875 Q 24.75,53.75 24.5,54 24.25,54.25 24.125,54.625 24,55 24,55.5 24,56 23.875,56.375 23.75,56.75 23.5,57 23.25,57.25 23.125,57.625 23,58 23,58.5 q 0,0.5 0,1 0,0.5 -0.125,0.875 Q 22.75,60.75 22.5,61 22.25,61.25 22.125,61.625 22,62 21.875,62.375 21.75,62.75 21.5,63 21.25,63.25 21.125,63.625 21,64 21.125,64.375 21.25,64.75 21.5,65 q 0.25,0.25 0.25,0.5 0,0.25 -0.25,0.5 -0.25,0.25 -0.375,0.625 Q 21,67 21,67.5 q 0,0.5 0,1 0,0.5 -0.125,0.875 Q 20.75,69.75 20.5,70 20.25,70.25 20.125,70.625 20,71 20,71.5 20,72 19.875,72.375 19.75,72.75 19.5,73 19.25,73.25 19.125,73.625 19,74 19,74.5 19,75 19.125,75.375 19.25,75.75 19.5,76 q 0.25,0.25 0.25,0.5 0,0.25 -0.25,0.5 -0.25,0.25 -0.375,0.625 Q 19,78 19,78.5 19,79 18.875,79.375 18.75,79.75 18.5,80 18.25,80.25 18.125,80.625 18,81 17.875,81.375 17.75,81.75 17.5,82 17.25,82.25 17,82.5 16.75,82.75 16.5,83 16.25,83.25 16.125,83.625 16,84 15.875,84.375 15.75,84.75 15.375,84.875 15,85 14.5,85 14,85 13.625,84.875 13.25,84.75 13,84.5 12.75,84.25 12.375,84.125 12,84 11.625,83.875 11.25,83.75 11.125,83.375 11,83 11,82.5 11,82 11,81.5 11,81 11,80.5 11,80 11.125,79.625 11.25,79.25 11.5,79 11.75,78.75 11.875,78.375 12,78 12,77.5 12,77 12.125,76.625 12.25,76.25 12.5,76 12.75,75.75 12.875,75.375 13,75 13,74.5 q 0,-0.5 0,-1 0,-0.5 0,-1 0,-0.5 0,-1 0,-0.5 0,-1 0,-0.5 0,-1 0,-0.5 0,-1 Q 13,68 13.125,67.625 13.25,67.25 13.5,67 13.75,66.75 13.875,66.375 14,66 14,65.5 14,65 14,64.5 14,64 14,63.5 14,63 14.125,62.625 14.25,62.25 14.5,62 14.75,61.75 14.875,61.375 15,61 15,60.5 q 0,-0.5 0,-1 0,-0.5 0,-1 0,-0.5 0,-1 0,-0.5 0,-1 0,-0.5 0,-1 0,-0.5 0,-1 Q 15,54 14.875,53.625 14.75,53.25 14.5,53 14.25,52.75 14.125,52.375 14,52 14.125,51.625 14.25,51.25 14.5,51 14.75,50.75 14.875,50.375 15,50 15,49.5 q 0,-0.5 0,-1 0,-0.5 0,-1 0,-0.5 0,-1 0,-0.5 0,-1 Q 15,45 15.125,44.625 15.25,44.25 15.5,44 15.75,43.75 15.875,43.375 16,43 16,42.5 16,42 16.125,41.625 16.25,41.25 16.5,41 16.75,40.75 16.875,40.375 17,40 17,39.5 17,39 17,38.5 17,38 17.125,37.625 17.25,37.25 17.5,37 17.75,36.75 17.875,36.375 18,36 17.875,35.625 17.75,35.25 17.5,35 17.25,34.75 17.125,34.375 17,34 17,33.5 17,33 17,32.5 17,32 17,31.5 17,31 16.875,30.625 16.75,30.25 16.5,30.25 16.25,30.25 16,30.5 15.75,30.75 15.5,31 15.25,31.25 15.125,31.625 15,32 14.875,32.375 14.75,32.75 14.5,33 14.25,33.25 14.125,33.625 14,34 13.875,34.375 13.75,34.75 13.5,35 13.25,35.25 13,35.5 12.75,35.75 12.5,36 12.25,36.25 12,36.5 11.75,36.75 11.5,37 11.25,37.25 11,37.5 10.75,37.75 10.5,38 10.25,38.25 10.125,38.625 10,39 9.875,39.375 9.75,39.75 9.5,40 9.25,40.25 9.125,40.625 9,41 9,41.5 9,42 9,42.5 9,43 8.875,43.375 8.75,43.75 8.5,44 8.25,44.25 8.125,44.625 8,45 7.875,45.375 7.75,45.75 7.5,46 7.25,46.25 7,46.5 6.75,46.75 6.375,46.875 6,47 5.5,47 5,47 4.625,47.125 4.25,47.25 4,47.5 3.75,47.75 3.5,47.75 3.25,47.75 3.125,47.375 3,47 3,46.5 3,46 2.875,45.625 2.75,45.25 2.5,45 2.25,44.75 2.25,44.5 2.25,44.25 2.5,44 2.75,43.75 2.875,43.375 3,43 3,42.5 3,42 3.125,41.625 3.25,41.25 3.5,41 3.75,40.75 3.875,40.375 4,40 4,39.5 4,39 4,38.5 4,38 4.125,37.625 4.25,37.25 4.5,37 4.75,36.75 4.875,36.375 5,36 5.125,35.625 5.25,35.25 5.5,35 5.75,34.75 6,34.5 6.25,34.25 6.5,34 6.75,33.75 6.875,33.375 7,33 7.125,32.625 7.25,32.25 7.5,32 7.75,31.75 8,31.5 8.25,31.25 8.5,31 8.75,30.75 8.875,30.375 9,30 9.125,29.625 9.25,29.25 9.5,29 9.75,28.75 9.875,28.375 10,28 10.125,27.625 10.25,27.25 10.5,27 10.75,26.75 10.875,26.375 11,26 11,25.5 11,25 11.125,24.625 11.25,24.25 11.5,24 11.75,23.75 11.875,23.375 12,23 12,22.5 12,22 12,21.5 12,21 12.125,20.625 12.25,20.25 12.5,20 12.75,19.75 12.875,19.375 13,19 13.125,18.625 13.25,18.25 13.5,18 13.75,17.75 14,17.5 14.25,17.25 14.5,17 14.75,16.75 15,16.5 15.25,16.25 15.625,16.125 16,16 16.375,15.875 16.75,15.75 17,15.5 17.25,15.25 17.625,15.125 18,15 18.5,15 19,15 19.375,14.875 19.75,14.75 20,14.5 20.25,14.25 20.5,14 20.75,13.75 21,13.5 21.25,13.25 21.5,13 21.75,12.75 21.75,12.5 21.75,12.25 21.5,12 21.25,11.75 21.125,11.375 21,11 20.875,10.625 20.75,10.25 20.5,10 20.25,9.75 20.125,9.375 20,9 20,8.5 20,8 20,7.5 20,7 20.125,6.625 20.25,6.25 20.5,6 20.75,5.75 20.875,5.375 21,5 21,4.5 21,4 21.125,3.625 21.25,3.25 21.5,3 21.75,2.75 22,2.5 22.25,2.25 22.625,2.125 23,2 23.375,1.875 23.75,1.75 24,1.5"
       style="fill:rgba(255, 165, 11, 0.2);stroke:rgba(255, 165, 11, 0.8)"
       /></g>
</svg>
</svg>
