<?xml version="1.0" encoding="UTF-8" standalone="no"?>
<svg
	xmlns="http://www.w3.org/2000/svg"
	viewBox="0 0 1280 720"
	id="svg2"
>
<metadata>
<rdf:RDF xmlns:rdf="http://www.w3.org/1999/02/22-rdf-syntax-ns#" xmlns:schema="http://schema.org/">
	<schema:license rdf:resource="https://www.gnu.org/licenses/agpl-3.0.html"/>
</rdf:RDF>
</metadata>
<defs>
	<filter id="project-glow" x="-20%" y="-20%" width="140%" height="140%">
		<feGaussianBlur in="SourceGraphic" stdDeviation="1" result="blurred"/>
	
		<feGaussianBlur in="SourceGraphic" stdDeviation="3" result="blurred1"/>
		<feOffset in="blurred1" dx="0" dy="4" result="offsetblur1"/>
		<feColorMatrix in="offsetblur1" type="matrix" result="dropshadow1"
		values="0.6 0 0 0 0 0 0.6 0 0 0 0 0 0.6 0 0 0 0 0 1 0" />
	
		<feGaussianBlur in="SourceGraphic" stdDeviation="8" result="blurred2"/>
		<feOffset in="blurred2" dx="0" dy="4" result="offsetblur2"/>
		<feColorMatrix in="offsetblur2" type="matrix" result="dropshadow2"
		values="0.6 0 0 0 0 0 0.6 0 0 0 0 0 0.6 0 0 0 0 0 1 0" />
	
		<feGaussianBlur in="SourceGraphic" stdDeviation="12" result="blurred3"/>
		<feOffset in="blurred3" dx="0" dy="6" result="offsetblur3"/>
		<feColorMatrix in="offsetblur3" type="matrix" result="dropshadow3"
		values="1.0 0 0 0 0 0 1.0 0 0 0 0 0 1.0 0 0 0 0 0 1 0" />
	
		<feMerge>
			<feMergeNode in="dropshadow3"/>
			<feMergeNode in="dropshadow2"/>
			<feMergeNode in="dropshadow1"/>
			<feMergeNode in="blurred"/>
		</feMerge>
	</filter>

	<filter id="f-dropshadow2">
		<feGaussianBlur in="SourceGraphic" stdDeviation="1" result="blurred"/>
	
		<feGaussianBlur in="SourceGraphic" stdDeviation="8" result="blurred1"/>
		<feOffset in="blurred1" dx="0" dy="10" result="offsetblur1"/>
		<feColorMatrix in="offsetblur1" type="matrix" result="dropshadow1"
		values="0.5 0 0 0 0 0 0.5 0 0 0 0 0 0.5 0 0 0 0 0 1 0" />
	
		<feMerge>
			<feMergeNode in="dropshadow1"/>
			<feMergeNode in="blurred"/>
		</feMerge>
	</filter>

	<filter id="f-dropshadow-up" x="-20%" y="-20%" width="140%" height="140%">
		<feGaussianBlur in="SourceGraphic" stdDeviation="6" result="blurred1"/>
		<feOffset in="blurred1" dx="0" dy="-3" result="offsetblur1"/>
		<feColorMatrix in="offsetblur1" type="matrix" result="dropshadow1"
		values="0.5 0 0 0 0 0 0.5 0 0 0 0 0 0.5 0 0 0 0 0 1 0" />
	</filter>

	<filter id="f-dropshadow3">
		<feGaussianBlur in="SourceGraphic" stdDeviation="1" result="blurred"/>
	
		<feGaussianBlur in="SourceGraphic" stdDeviation="2" result="blurred1"/>
		<feOffset in="blurred1" dx="0" dy="2" result="offsetblur1"/>
		<feColorMatrix in="offsetblur1" type="matrix" result="dropshadow1"
		values="0.8 0 0 0 0 0 0.8 0 0 0 0 0 0.8 0 0 0 0 0 1 0" />
	
		<feMerge>
			<feMergeNode in="dropshadow1"/>
			<feMergeNode in="blurred"/>
		</feMerge>
	</filter>

	<filter id="f-dropshadow4">
		<feGaussianBlur in="SourceGraphic" stdDeviation="1" result="blurred1"/>
		<feOffset in="blurred1" dx="0" dy="0" result="offsetblur1"/>
		<feColorMatrix in="offsetblur1" type="matrix" result="dropshadow1"
		values="0.8 0 0 0 0 0 0.8 0 0 0 0 0 0.8 0 0 0 0 0 1 0" />
	
		<feMerge>
			<feMergeNode in="dropshadow1"/>
			<feMergeNode in="SourceGraphic"/>
		</feMerge>
	</filter>
	<style type="text/css"><![CDATA[
		.line {
			fill:none;
			stroke:rgba(255, 165, 11, 0.5);
		}
		#HUD-lower,
		#HUD-upper {
			display: none;
		}
		#HUD-lower:target,
		#HUD-upper:target {
			display: inline;
		}
		.line.project {
			stroke-width:3;
			filter: url("#project-glow");
		}
		.line.reflect {
			z-index: 40;
			stroke-width:1;
			filter: url("#f-dropshadow2");
		}
		.line.reflect-top {
			z-index: 40;
			stroke-width:7;
			filter: url("#f-dropshadow-up");
		}
		.line.detail {
			stroke-width:3;
			filter: url("#f-dropshadow3");
		}
		.line.bright-detail {
			stroke-width:4;
			filter: url("#f-dropshadow4");
		}
	]]></style>
</defs>
<svg viewBox="0 0 1280 720" id="HUD-lower">
	<path class="line project" id="lower-main"
	d="
		M0,620
		L-2.0,620.0
		Q10.0,620.0 17.7,629.2
		L52.3,670.8
		Q60.0,680.0 71.7,682.5
		L213.3,712.5
		Q225.0,715.0 234.2,707.3
		L245.8,697.7
		Q255.0,690.0 266.8,692.2
		L348.2,707.8
		Q360.0,710.0 365,720
		
		M910,720
		L916.8,712.8
		Q925.0,704.0 936.9,702.1
		L1009.1,690.9
		Q1021.0,689.0 1031.2,695.4
		L1045.8,704.6
		Q1056.0,711.0 1067.7,708.2
		L1209.3,674.8
		Q1221.0,672.0 1228.6,662.7
		L1260.4,623.3
		Q1268.0,614.0 1280,614
	"/>
	<path class="line reflect" id="lower-main-shadow"
	d="
		M0,608
		L3.0,608.0
		Q15.0,608.0 22.8,617.1
		L58.2,658.9
		Q66.0,668.0 77.7,670.6
		L220.3,702.4
		Q232.0,705.0 242.0,698.3
		L258.0,687.7
		Q268.0,681.0 279.8,683.2
		L347.2,695.8
		Q359.0,698.0 364.2,708.8
		L370,721
		
		M902,720
		L912.6,706.5
		Q920.0,697.0 931.9,695.4
		L995.1,686.6
		Q1007.0,685.0 1018.1,689.5
		L1035.9,696.5
		Q1047.0,701.0 1058.7,698.4
		L1202.3,666.6
		Q1214.0,664.0 1221.4,654.6
		L1251.6,616.4
		Q1259.0,607.0 1271.0,607.0
		L1280,607
	"/>
	<path class="line detail" id="medical-outline"
	d="
		M 73,602
		L 66,643
		Q 66,647 67,649
		L 75,659
		Q 76,660 78,661
		L108,668
		Q115,668 118,661
		L127,611
		Q129,603 122,602
		L 87,596
		Q 75,594 73,602
	
		M140,652
		Q136,652 136,654
		L132,667
		Q132,672 135,672
		L150,675
		Q154,675 154,671
		L156,657
		Q156,656 154,655
		Z
	"/>
	
	<path class="line bright-detail" id="cross"
	d="
		M138,662
		L151,665
		M146,658
		L143,670
	"/>
</svg>
<svg viewBox="0 0 1280 720" id="HUD-upper">
	<path class="line project" id="upper-main"
	d="
		M249, 0
		L257,17
		Q259,19 262,21
		L388,39
		Q396,39 401,37
		L435,25
		Q440,24 454,26
		L610,42
		Q625,42 629,36
		Q633,33 645,33
		Q656,33 661,35
		Q666,41 680,41
		L862,29
		Q872,29 879,31
		L906,43
		Q910,44 914,44
		L944,41
		Q950,40 952,37
		Q960,27 969, 0
	"/>
	
	<path class="line reflect-top" id="upper-main-shadow"
	d="
		M258,17
		L402,37
		M900,41
		L952,37
	"/>
</svg>
</svg>
